<svg xmlns="http://www.w3.org/2000/svg" xmlns:xlink="http://www.w3.org/1999/xlink" width="500" zoomAndPan="magnify" viewBox="0 0 375 374.999991" height="500" preserveAspectRatio="xMidYMid meet" version="1.0"><defs><g/><clipPath id="id1"><path d="M 147.917969 115.789062 L 226 115.789062 L 226 162 L 147.917969 162 Z M 147.917969 115.789062 " clip-rule="nonzero"/></clipPath><clipPath id="id2"><path d="M 154 141 L 227.417969 141 L 227.417969 195.289062 L 154 195.289062 Z M 154 141 " clip-rule="nonzero"/></clipPath><clipPath id="id3"><path d="M 147.917969 144 L 197 144 L 197 174 L 147.917969 174 Z M 147.917969 144 " clip-rule="nonzero"/></clipPath></defs><rect x="-37.5" width="450" fill="#ffffff" y="-37.499999" height="449.999989" fill-opacity="1"/><rect x="-37.5" width="450" fill="#ffffff" y="-37.499999" height="449.999989" fill-opacity="1"/><rect x="-37.5" width="450" fill="#000000" y="-37.499999" height="449.999989" fill-opacity="1"/><g fill="#ffffff" fill-opacity="1"><g transform="translate(77.169876, 239.007625)"><g><path d="M 11.546875 -20.5 C 13.054688 -20.5 14.539062 -20.1875 16 -19.5625 C 17.46875 -18.945312 18.710938 -18.117188 19.734375 -17.078125 L 16.75 -13.53125 C 16.09375 -14.34375 15.300781 -14.984375 14.375 -15.453125 C 13.457031 -15.929688 12.546875 -16.171875 11.640625 -16.171875 C 10.035156 -16.171875 8.691406 -15.601562 7.609375 -14.46875 C 6.523438 -13.34375 5.984375 -11.945312 5.984375 -10.28125 C 5.984375 -8.570312 6.523438 -7.144531 7.609375 -6 C 8.691406 -4.863281 10.035156 -4.296875 11.640625 -4.296875 C 12.492188 -4.296875 13.378906 -4.507812 14.296875 -4.9375 C 15.210938 -5.363281 16.03125 -5.941406 16.75 -6.671875 L 19.765625 -3.484375 C 18.660156 -2.359375 17.359375 -1.457031 15.859375 -0.78125 C 14.359375 -0.101562 12.863281 0.234375 11.375 0.234375 C 8.320312 0.234375 5.78125 -0.757812 3.75 -2.75 C 1.71875 -4.75 0.703125 -7.238281 0.703125 -10.21875 C 0.703125 -13.144531 1.734375 -15.585938 3.796875 -17.546875 C 5.867188 -19.515625 8.453125 -20.5 11.546875 -20.5 Z M 11.546875 -20.5 "/></g></g></g><g fill="#ffffff" fill-opacity="1"><g transform="translate(98.729049, 239.007625)"><g><path d="M 7.203125 0 L 2.03125 0 L 2.03125 -20.328125 L 7.203125 -20.328125 Z M 7.203125 0 "/></g></g></g><g fill="#ffffff" fill-opacity="1"><g transform="translate(109.436385, 239.007625)"><g><path d="M 14.28125 0 L 11.265625 -5.71875 L 7.203125 -5.71875 L 7.203125 0 L 2.03125 0 L 2.03125 -20.328125 L 11.125 -20.328125 C 13.8125 -20.328125 15.890625 -19.710938 17.359375 -18.484375 C 18.828125 -17.253906 19.5625 -15.503906 19.5625 -13.234375 C 19.5625 -10.097656 18.332031 -7.921875 15.875 -6.703125 L 20.140625 0 Z M 7.203125 -9.78125 L 11.125 -9.78125 C 12.238281 -9.78125 13.101562 -10.0625 13.71875 -10.625 C 14.34375 -11.1875 14.65625 -12 14.65625 -13.0625 C 14.65625 -14.101562 14.34375 -14.894531 13.71875 -15.4375 C 13.101562 -15.976562 12.238281 -16.25 11.125 -16.25 L 7.203125 -16.25 Z M 7.203125 -9.78125 "/></g></g></g><g fill="#ffffff" fill-opacity="1"><g transform="translate(131.92405, 239.007625)"><g><path d="M 11.546875 -20.5 C 13.054688 -20.5 14.539062 -20.1875 16 -19.5625 C 17.46875 -18.945312 18.710938 -18.117188 19.734375 -17.078125 L 16.75 -13.53125 C 16.09375 -14.34375 15.300781 -14.984375 14.375 -15.453125 C 13.457031 -15.929688 12.546875 -16.171875 11.640625 -16.171875 C 10.035156 -16.171875 8.691406 -15.601562 7.609375 -14.46875 C 6.523438 -13.34375 5.984375 -11.945312 5.984375 -10.28125 C 5.984375 -8.570312 6.523438 -7.144531 7.609375 -6 C 8.691406 -4.863281 10.035156 -4.296875 11.640625 -4.296875 C 12.492188 -4.296875 13.378906 -4.507812 14.296875 -4.9375 C 15.210938 -5.363281 16.03125 -5.941406 16.75 -6.671875 L 19.765625 -3.484375 C 18.660156 -2.359375 17.359375 -1.457031 15.859375 -0.78125 C 14.359375 -0.101562 12.863281 0.234375 11.375 0.234375 C 8.320312 0.234375 5.78125 -0.757812 3.75 -2.75 C 1.71875 -4.75 0.703125 -7.238281 0.703125 -10.21875 C 0.703125 -13.144531 1.734375 -15.585938 3.796875 -17.546875 C 5.867188 -19.515625 8.453125 -20.5 11.546875 -20.5 Z M 11.546875 -20.5 "/></g></g></g><g fill="#ffffff" fill-opacity="1"><g transform="translate(153.483223, 239.007625)"><g><path d="M 20.328125 -20.328125 L 20.328125 -8.53125 C 20.328125 -5.84375 19.492188 -3.707031 17.828125 -2.125 C 16.160156 -0.550781 13.90625 0.234375 11.0625 0.234375 C 8.195312 0.234375 5.914062 -0.550781 4.21875 -2.125 C 2.53125 -3.707031 1.6875 -5.84375 1.6875 -8.53125 L 1.6875 -20.328125 L 6.84375 -20.328125 L 6.84375 -8.53125 C 6.84375 -7.175781 7.234375 -6.097656 8.015625 -5.296875 C 8.804688 -4.492188 9.832031 -4.09375 11.09375 -4.09375 C 12.332031 -4.09375 13.320312 -4.488281 14.0625 -5.28125 C 14.8125 -6.070312 15.1875 -7.15625 15.1875 -8.53125 L 15.1875 -20.328125 Z M 20.328125 -20.328125 "/></g></g></g><g fill="#ffffff" fill-opacity="1"><g transform="translate(176.957429, 239.007625)"><g><path d="M 7.203125 -4.328125 L 15.828125 -4.328125 L 15.828125 0 L 2.03125 0 L 2.03125 -20.328125 L 7.203125 -20.328125 Z M 7.203125 -4.328125 "/></g></g></g><g fill="#ffffff" fill-opacity="1"><g transform="translate(194.686535, 239.007625)"><g><path d="M 15.53125 -3.75 L 6.640625 -3.75 L 5.171875 0 L -0.140625 0 L 8.625 -20.328125 L 13.9375 -20.328125 L 22.5 0 L 16.984375 0 Z M 14.015625 -7.671875 L 11.125 -15.1875 L 8.15625 -7.671875 Z M 14.015625 -7.671875 "/></g></g></g><g fill="#ffffff" fill-opacity="1"><g transform="translate(218.508921, 239.007625)"><g><path d="M 14.28125 0 L 11.265625 -5.71875 L 7.203125 -5.71875 L 7.203125 0 L 2.03125 0 L 2.03125 -20.328125 L 11.125 -20.328125 C 13.8125 -20.328125 15.890625 -19.710938 17.359375 -18.484375 C 18.828125 -17.253906 19.5625 -15.503906 19.5625 -13.234375 C 19.5625 -10.097656 18.332031 -7.921875 15.875 -6.703125 L 20.140625 0 Z M 7.203125 -9.78125 L 11.125 -9.78125 C 12.238281 -9.78125 13.101562 -10.0625 13.71875 -10.625 C 14.34375 -11.1875 14.65625 -12 14.65625 -13.0625 C 14.65625 -14.101562 14.34375 -14.894531 13.71875 -15.4375 C 13.101562 -15.976562 12.238281 -16.25 11.125 -16.25 L 7.203125 -16.25 Z M 7.203125 -9.78125 "/></g></g></g><g fill="#ffffff" fill-opacity="1"><g transform="translate(240.996583, 239.007625)"><g><path d="M 7.203125 0 L 2.03125 0 L 2.03125 -20.328125 L 7.203125 -20.328125 Z M 7.203125 0 "/></g></g></g><g fill="#ffffff" fill-opacity="1"><g transform="translate(251.703915, 239.007625)"><g><path d="M 11.671875 -20.5 C 14.828125 -20.5 17.445312 -19.515625 19.53125 -17.546875 C 21.625 -15.585938 22.671875 -13.132812 22.671875 -10.1875 C 22.671875 -7.226562 21.617188 -4.75 19.515625 -2.75 C 17.421875 -0.757812 14.804688 0.234375 11.671875 0.234375 C 8.535156 0.234375 5.921875 -0.753906 3.828125 -2.734375 C 1.742188 -4.722656 0.703125 -7.207031 0.703125 -10.1875 C 0.703125 -13.144531 1.742188 -15.601562 3.828125 -17.5625 C 5.921875 -19.519531 8.535156 -20.5 11.671875 -20.5 Z M 11.734375 -16.171875 C 10.140625 -16.171875 8.78125 -15.59375 7.65625 -14.4375 C 6.539062 -13.289062 5.984375 -11.863281 5.984375 -10.15625 C 5.984375 -8.457031 6.546875 -7.019531 7.671875 -5.84375 C 8.804688 -4.675781 10.15625 -4.09375 11.71875 -4.09375 C 13.289062 -4.09375 14.625 -4.675781 15.71875 -5.84375 C 16.8125 -7.019531 17.359375 -8.457031 17.359375 -10.15625 C 17.359375 -11.863281 16.8125 -13.289062 15.71875 -14.4375 C 14.625 -15.59375 13.296875 -16.171875 11.734375 -16.171875 Z M 11.734375 -16.171875 "/></g></g></g><g fill="#ffffff" fill-opacity="1"><g transform="translate(276.54185, 239.007625)"><g><path d="M 13.8125 -10.625 L 21.109375 0 L 14.921875 0 L 10.53125 -6.46875 L 6.15625 0 L 0.140625 0 L 7.40625 -10.390625 L 0.609375 -20.328125 L 6.625 -20.328125 L 10.53125 -14.40625 L 14.453125 -20.328125 L 20.53125 -20.328125 Z M 13.8125 -10.625 "/></g></g></g><g fill="#ffffff" fill-opacity="1"><g transform="translate(132.405244, 256.82515)"><g><path d="M 6.640625 -6.921875 L 4.046875 -6.921875 L 4.046875 0 L 2.671875 0 L 2.671875 -6.921875 L 0.109375 -6.921875 L 0.109375 -8.140625 L 6.640625 -8.140625 Z M 6.640625 -6.921875 "/></g></g></g><g fill="#ffffff" fill-opacity="1"><g transform="translate(142.263799, 256.82515)"><g><path d="M 6.890625 -6.921875 L 2.4375 -6.921875 L 2.4375 -4.71875 L 6.421875 -4.71875 L 6.421875 -3.484375 L 2.4375 -3.484375 L 2.4375 -1.234375 L 7.03125 -1.234375 L 7.03125 0 L 1.078125 0 L 1.078125 -8.140625 L 6.890625 -8.140625 Z M 6.890625 -6.921875 "/></g></g></g><g fill="#ffffff" fill-opacity="1"><g transform="translate(153.018381, 256.82515)"><g><path d="M 4.671875 -8.1875 C 5.253906 -8.1875 5.816406 -8.070312 6.359375 -7.84375 C 6.910156 -7.625 7.382812 -7.316406 7.78125 -6.921875 L 6.96875 -5.921875 C 6.675781 -6.242188 6.328125 -6.5 5.921875 -6.6875 C 5.515625 -6.875 5.109375 -6.96875 4.703125 -6.96875 C 3.890625 -6.96875 3.203125 -6.6875 2.640625 -6.125 C 2.078125 -5.570312 1.796875 -4.894531 1.796875 -4.09375 C 1.796875 -3.289062 2.078125 -2.609375 2.640625 -2.046875 C 3.203125 -1.492188 3.890625 -1.21875 4.703125 -1.21875 C 5.546875 -1.21875 6.300781 -1.539062 6.96875 -2.1875 L 7.78125 -1.28125 C 7.363281 -0.863281 6.875 -0.535156 6.3125 -0.296875 C 5.757812 -0.0546875 5.203125 0.0625 4.640625 0.0625 C 3.441406 0.0625 2.429688 -0.332031 1.609375 -1.125 C 0.796875 -1.925781 0.390625 -2.910156 0.390625 -4.078125 C 0.390625 -5.234375 0.800781 -6.207031 1.625 -7 C 2.457031 -7.789062 3.472656 -8.1875 4.671875 -8.1875 Z M 4.671875 -8.1875 "/></g></g></g><g fill="#ffffff" fill-opacity="1"><g transform="translate(164.250066, 256.82515)"><g><path d="M 8.140625 0 L 6.765625 0 L 6.765625 -3.375 L 2.4375 -3.375 L 2.4375 0 L 1.078125 0 L 1.078125 -8.140625 L 2.4375 -8.140625 L 2.4375 -4.609375 L 6.765625 -4.609375 L 6.765625 -8.140625 L 8.140625 -8.140625 Z M 8.140625 0 "/></g></g></g><g fill="#ffffff" fill-opacity="1"><g transform="translate(176.575601, 256.82515)"><g><path d="M 8.140625 0 L 6.78125 0 L 2.4375 -5.84375 L 2.4375 0 L 1.078125 0 L 1.078125 -8.140625 L 2.421875 -8.140625 L 6.78125 -2.296875 L 6.78125 -8.140625 L 8.140625 -8.140625 Z M 8.140625 0 "/></g></g></g><g fill="#ffffff" fill-opacity="1"><g transform="translate(188.912778, 256.82515)"><g><path d="M 1.640625 -7 C 2.472656 -7.789062 3.5 -8.1875 4.71875 -8.1875 C 5.9375 -8.1875 6.957031 -7.789062 7.78125 -7 C 8.613281 -6.207031 9.03125 -5.226562 9.03125 -4.0625 C 9.03125 -2.90625 8.613281 -1.925781 7.78125 -1.125 C 6.957031 -0.332031 5.9375 0.0625 4.71875 0.0625 C 3.5 0.0625 2.472656 -0.332031 1.640625 -1.125 C 0.804688 -1.925781 0.390625 -2.90625 0.390625 -4.0625 C 0.390625 -5.226562 0.804688 -6.207031 1.640625 -7 Z M 4.71875 -6.953125 C 3.914062 -6.953125 3.226562 -6.671875 2.65625 -6.109375 C 2.082031 -5.554688 1.796875 -4.875 1.796875 -4.0625 C 1.796875 -3.257812 2.082031 -2.578125 2.65625 -2.015625 C 3.238281 -1.453125 3.925781 -1.171875 4.71875 -1.171875 C 5.519531 -1.171875 6.203125 -1.453125 6.765625 -2.015625 C 7.335938 -2.578125 7.625 -3.257812 7.625 -4.0625 C 7.625 -4.875 7.335938 -5.554688 6.765625 -6.109375 C 6.203125 -6.671875 5.519531 -6.953125 4.71875 -6.953125 Z M 4.71875 -6.953125 "/></g></g></g><g fill="#ffffff" fill-opacity="1"><g transform="translate(201.459416, 256.82515)"><g><path d="M 2.4375 -1.25 L 5.96875 -1.25 L 5.96875 0 L 1.078125 0 L 1.078125 -8.140625 L 2.4375 -8.140625 Z M 2.4375 -1.25 "/></g></g></g><g fill="#ffffff" fill-opacity="1"><g transform="translate(210.794326, 256.82515)"><g><path d="M 1.640625 -7 C 2.472656 -7.789062 3.5 -8.1875 4.71875 -8.1875 C 5.9375 -8.1875 6.957031 -7.789062 7.78125 -7 C 8.613281 -6.207031 9.03125 -5.226562 9.03125 -4.0625 C 9.03125 -2.90625 8.613281 -1.925781 7.78125 -1.125 C 6.957031 -0.332031 5.9375 0.0625 4.71875 0.0625 C 3.5 0.0625 2.472656 -0.332031 1.640625 -1.125 C 0.804688 -1.925781 0.390625 -2.90625 0.390625 -4.0625 C 0.390625 -5.226562 0.804688 -6.207031 1.640625 -7 Z M 4.71875 -6.953125 C 3.914062 -6.953125 3.226562 -6.671875 2.65625 -6.109375 C 2.082031 -5.554688 1.796875 -4.875 1.796875 -4.0625 C 1.796875 -3.257812 2.082031 -2.578125 2.65625 -2.015625 C 3.238281 -1.453125 3.925781 -1.171875 4.71875 -1.171875 C 5.519531 -1.171875 6.203125 -1.453125 6.765625 -2.015625 C 7.335938 -2.578125 7.625 -3.257812 7.625 -4.0625 C 7.625 -4.875 7.335938 -5.554688 6.765625 -6.109375 C 6.203125 -6.671875 5.519531 -6.953125 4.71875 -6.953125 Z M 4.71875 -6.953125 "/></g></g></g><g fill="#ffffff" fill-opacity="1"><g transform="translate(223.340964, 256.82515)"><g><path d="M 6.640625 -4 L 7.84375 -4 L 7.84375 -1 C 7.425781 -0.6875 6.929688 -0.429688 6.359375 -0.234375 C 5.785156 -0.0351562 5.222656 0.0625 4.671875 0.0625 C 3.472656 0.0625 2.457031 -0.332031 1.625 -1.125 C 0.800781 -1.925781 0.390625 -2.90625 0.390625 -4.0625 C 0.390625 -5.226562 0.804688 -6.207031 1.640625 -7 C 2.484375 -7.789062 3.523438 -8.1875 4.765625 -8.1875 C 5.335938 -8.1875 5.898438 -8.082031 6.453125 -7.875 C 7.003906 -7.664062 7.484375 -7.390625 7.890625 -7.046875 L 7.109375 -6.03125 C 6.441406 -6.65625 5.660156 -6.96875 4.765625 -6.96875 C 3.929688 -6.96875 3.226562 -6.6875 2.65625 -6.125 C 2.082031 -5.5625 1.796875 -4.878906 1.796875 -4.078125 C 1.796875 -3.265625 2.082031 -2.578125 2.65625 -2.015625 C 3.238281 -1.453125 3.941406 -1.171875 4.765625 -1.171875 C 5.398438 -1.171875 6.023438 -1.359375 6.640625 -1.734375 Z M 6.640625 -4 "/></g></g></g><g fill="#ffffff" fill-opacity="1"><g transform="translate(235.177759, 256.82515)"><g><path d="M 4.40625 -2.71875 L 4.40625 0 L 3.046875 0 L 3.046875 -2.671875 L 0.015625 -8.140625 L 1.390625 -8.140625 L 3.71875 -4.171875 L 6 -8.140625 L 7.40625 -8.140625 Z M 4.40625 -2.71875 "/></g></g></g><g clip-path="url(#id1)"><path fill="#ffffff" d="M 173.5 136.851562 C 175.261719 136.371094 177.082031 137.410156 177.5625 139.175781 C 178.039062 140.9375 177 142.753906 175.238281 143.234375 C 173.472656 143.714844 171.65625 142.675781 171.175781 140.910156 C 170.699219 139.148438 171.738281 137.332031 173.5 136.851562 Z M 204.132812 115.789062 L 171.207031 115.789062 L 147.921875 139.074219 L 147.921875 161.417969 C 148.398438 161.058594 148.875 160.699219 149.351562 160.347656 C 151.945312 158.445312 154.566406 156.664062 157.15625 155.015625 C 162.335938 151.71875 167.363281 148.9375 171.734375 146.691406 C 171.765625 146.675781 171.792969 146.660156 171.824219 146.644531 C 173.183594 147.167969 174.714844 147.28125 176.226562 146.871094 C 179.996094 145.84375 182.222656 141.957031 181.195312 138.1875 C 180.171875 134.414062 176.28125 132.191406 172.511719 133.214844 C 169.621094 134.003906 167.640625 136.46875 167.335938 139.277344 C 164.46875 141.121094 161.324219 143.242188 158.054688 145.609375 L 158.054688 143.273438 L 175.40625 125.921875 L 199.9375 125.921875 L 215.390625 141.375 L 225.535156 137.191406 L 204.132812 115.789062 " fill-opacity="1" fill-rule="nonzero"/></g><g clip-path="url(#id2)"><path fill="#ffffff" d="M 207.980469 160.601562 C 209.808594 160.578125 211.304688 162.042969 211.328125 163.867188 C 211.351562 165.695312 209.890625 167.195312 208.0625 167.21875 C 206.238281 167.242188 204.738281 165.777344 204.714844 163.953125 C 204.691406 162.125 206.152344 160.625 207.980469 160.601562 Z M 217.285156 145.921875 L 217.285156 167.804688 L 199.9375 185.152344 L 175.40625 185.152344 L 168.929688 178.679688 C 170.738281 178.011719 172.542969 177.386719 174.316406 176.8125 C 180.15625 174.917969 185.71875 173.484375 190.511719 172.398438 C 195.308594 171.316406 199.335938 170.589844 202.144531 170.128906 C 202.898438 170.007812 203.5625 169.902344 204.128906 169.820312 C 205.269531 170.570312 206.640625 171.003906 208.109375 170.984375 C 212.019531 170.9375 215.144531 167.730469 215.097656 163.820312 C 215.046875 159.914062 211.839844 156.785156 207.933594 156.835938 C 205.480469 156.867188 203.332031 158.144531 202.089844 160.054688 C 201.507812 160.203125 200.84375 160.371094 200.097656 160.566406 C 197.191406 161.332031 193.074219 162.492188 188.207031 164.089844 C 183.339844 165.691406 177.71875 167.730469 171.835938 170.28125 C 168.898438 171.554688 165.894531 172.964844 162.898438 174.507812 C 160.21875 175.894531 157.542969 177.390625 154.933594 179.011719 L 171.207031 195.285156 L 204.132812 195.285156 L 227.417969 172 L 227.417969 141.738281 L 217.285156 145.921875 " fill-opacity="1" fill-rule="nonzero"/></g><g clip-path="url(#id3)"><path fill="#ffffff" d="M 189.902344 154.472656 C 188.089844 154.707031 186.429688 153.429688 186.195312 151.617188 C 185.957031 149.808594 187.234375 148.148438 189.046875 147.910156 C 190.859375 147.675781 192.519531 148.953125 192.753906 150.765625 C 192.992188 152.574219 191.710938 154.234375 189.902344 154.472656 Z M 196.488281 150.277344 C 195.984375 146.402344 192.433594 143.671875 188.558594 144.175781 C 185.761719 144.539062 183.5625 146.492188 182.742188 149.007812 C 180.75 149.847656 178.5 150.835938 176.054688 151.96875 C 171.40625 154.128906 166.0625 156.808594 160.519531 160.03125 C 157.75 161.636719 154.929688 163.386719 152.136719 165.269531 C 150.722656 166.222656 149.316406 167.214844 147.921875 168.238281 L 147.921875 172 L 149.648438 173.726562 C 151.503906 172.574219 153.390625 171.480469 155.285156 170.449219 C 158.113281 168.914062 160.957031 167.507812 163.746094 166.226562 C 169.324219 163.660156 174.679688 161.589844 179.316406 159.953125 C 181.957031 159.019531 184.359375 158.234375 186.449219 157.585938 C 187.632812 158.148438 188.988281 158.390625 190.386719 158.207031 C 194.261719 157.703125 196.996094 154.152344 196.488281 150.277344 " fill-opacity="1" fill-rule="nonzero"/></g></svg>